<?xml version="1.0" encoding="utf-8"?>
<!-- Generator: Adobe Illustrator 25.4.0, SVG Export Plug-In . SVG Version: 6.00 Build 0)  -->
<svg version="1.1" id="Layer_1" xmlns="http://www.w3.org/2000/svg" xmlns:xlink="http://www.w3.org/1999/xlink" x="0px" y="0px"
	 viewBox="0 0 300 300" style="enable-background:new 0 0 300 300;" xml:space="preserve">
<style type="text/css">
	.st0{fill:#E6706A;}
	.st1{fill:#179BAC;}
</style>
<g>
	<path class="st0" d="M194.8,114.6c2.5-0.1,4.9,1,6.6,3c3.6,3.9,7.3,7.7,10.9,11.6c0.9,1,1.4,1.1,2.4,0c3.5-3.9,7.1-7.6,10.8-11.4
		c4.2-4.4,9.2-4.4,13.4,0.1c1.9,1.9,3.7,3.9,5.6,5.9c3.6,4,3.6,9.3,0,13.3c-3.6,3.9-7.3,7.8-11,11.5c-1.1,1.1-1.2,1.7,0,2.9
		c3.6,3.6,7.1,7.4,10.6,11.2c4.1,4.3,4.1,9.6,0.1,14c-1.9,2-3.8,4.1-5.7,6c-3.8,3.8-8.9,3.8-12.6,0s-7.3-7.7-10.9-11.6
		c-1-1.1-1.6-1.3-2.7,0c-3.5,3.8-7,7.5-10.6,11.2c-4.2,4.4-9.2,4.4-13.4-0.1c-1.9-1.9-3.7-3.9-5.5-5.9c-3.6-4-3.7-9.3,0-13.3
		c3.7-4,7.2-7.8,11-11.5c1.1-1.1,1.2-1.7,0-2.9c-3.6-3.6-7.1-7.4-10.6-11.2c-4.1-4.4-4.1-9.7-0.1-14c1.9-2,3.8-4.1,5.7-6.1
		C190.3,115.6,192.5,114.6,194.8,114.6z"/>
	<path class="st1" d="M166.1,151.7c0,22.8,0,45.6,0,68.4c0,10.2-3.9,17.9-10.3,20.5c-4.4,1.8-8.5,0.6-12.5-2.4
		c-16-12.2-32-24.4-48-36.5c-1.5-1.2-3.2-1.8-5-1.8c-7.5,0.1-14.9,0.1-22.4,0c-6,0-8.7-3.7-8.7-11.7c0-24.6,0-49.2,0-73.8
		c0-7.6,2.8-11.5,8.4-11.5c7.5,0,14.9,0,22.4,0c1.6,0.1,3.2-0.5,4.6-1.5c16.3-12.4,32.5-24.8,48.8-37.1c8.9-6.7,19.5-0.8,22.2,12.2
		c0.4,2.3,0.6,4.7,0.6,7.1C166,106.3,166,129,166.1,151.7z"/>
</g>
</svg>
