<?xml version="1.0" encoding="utf-8"?>
<!-- Generator: Adobe Illustrator 25.4.0, SVG Export Plug-In . SVG Version: 6.00 Build 0)  -->
<svg version="1.1" id="Layer_1" xmlns="http://www.w3.org/2000/svg" xmlns:xlink="http://www.w3.org/1999/xlink" x="0px" y="0px"
	 viewBox="0 0 300 300" style="enable-background:new 0 0 300 300;" xml:space="preserve">
<style type="text/css">
	.st0{fill:#179BAC;}
	.st1{fill:#E6706A;}
</style>
<g>
	<path class="st0" d="M161.1,150.3c0,22.8,0,45.6,0,68.4c0,10.3-3.7,17.8-9.8,20.5c-4.2,1.8-8.1,0.6-11.8-2.4
		c-15.1-12.2-30.3-24.4-45.4-36.5c-1.4-1.2-3.1-1.8-4.7-1.7c-7.1,0.1-14.1,0.1-21.2,0c-5.6,0-8.2-3.8-8.2-11.8c0-24.5,0-49.1,0-73.6
		c0-7.7,2.7-11.5,8-11.6c7.1,0,14.1-0.1,21.2,0c1.5,0.1,3-0.5,4.3-1.6c15.4-12.4,30.7-24.7,46.2-37.1C148,56.1,158,62,160.5,75
		c0.4,2.4,0.6,4.7,0.5,7.1C161.1,104.9,161.1,127.6,161.1,150.3z"/>
	<path class="st1" d="M240,152.2c-1.1,31.4-11.3,57.4-31.3,74.9c-2.8,2.4-5.6,2.6-8.3-0.1c-2.4-2.4-3.3-5.9-2.8-10.1
		c0.4-3.9,2.4-6,4.5-7.8c9.3-7.8,16.5-20.2,20.2-34.8c8.2-31-0.5-66.7-20.4-83.2c-1.6-1.4-3.3-2.6-4.3-5c-1.6-3.8-1.1-8.6,1-11.8
		c2.4-3.5,6-4.2,8.9-1.7c7.2,5.7,13.6,13.4,18.7,22.7C235.1,111.1,239.6,129.5,240,152.2z"/>
	<path class="st1" d="M211.2,150c-0.7,18.5-6.2,32.7-17.1,42.5c-3.7,3.4-8.2,1.9-10.2-3c-2.1-5-1-10.7,3-14.4
		c13.3-12.1,13.1-38.6-0.2-50.4c-4.2-3.7-5.4-9.4-3.3-14.4c2.1-5,6.6-6.4,10.6-2.9C205,117.2,210.6,131.6,211.2,150z"/>
</g>
</svg>
