<?xml version="1.0" encoding="utf-8"?>
<!-- Generator: Adobe Illustrator 25.4.0, SVG Export Plug-In . SVG Version: 6.00 Build 0)  -->
<svg version="1.1" id="Layer_1" xmlns="http://www.w3.org/2000/svg" xmlns:xlink="http://www.w3.org/1999/xlink" x="0px" y="0px"
	 viewBox="0 0 300 300" style="enable-background:new 0 0 300 300;" xml:space="preserve">
<style type="text/css">
	.st0{fill:#E95426;}
	.st1{fill:#179BAC;}
	.st2{fill:#E6E6E6;}
	.st3{fill:#E6706A;}
</style>
<path class="st0" d="M418.2,123.7L418.2,123.7L418.2,123.7z"/>
<g>
	<path class="st1" d="M249.4,150c-0.1,54.7-44.9,99.4-99.5,99.3c-54.7-0.1-99.4-45-99.2-99.5c0.2-54.7,44.8-99.2,99.4-99.1
		C204.8,50.6,249.5,95.3,249.4,150z"/>
	<path class="st2" d="M149.9,232.7c-45.5-0.1-82.8-37.3-82.6-83.1c0.1-45.5,37.6-82.7,83-82.5c45.6,0.1,82.8,37.4,82.6,83.1
		C232.7,195.7,195.3,232.8,149.9,232.7z"/>
	<path class="st3" d="M167.4,168.3c3.4-8.3,3.7-16.4,5.8-24.9c1.5-6.1,8.5-18.5,12.3-24.9l0,0c0.8,0.2,1.7-0.2,2.2-1l3.3-5.6
		c0.6-1,0.2-2.3-0.8-2.9l0.7,0.4c0.6,0.4,1.4,0.1,1.8-0.5l2.2-3.8c0.9-1.6,0.4-3.6-1.2-4.5l-18.8-10.9c-1.6-0.9-3.6-0.4-4.5,1.2
		l-2.2,3.8c-0.4,0.6-0.1,1.4,0.5,1.8l0.7,0.4c-1-0.6-2.3-0.2-2.9,0.8l-3.3,5.6c-0.5,0.8-0.3,1.7,0.2,2.4c-3.7,6.5-11,18.7-15.5,23.1
		c-6.2,6-13.2,10.3-18.6,17.4c-5.5,7.1-24.3,37.9-24.3,42.1c0,2.6,7.7,10.6,16.5,15.6s19.5,7.8,21.8,6.5
		C146.7,208.2,164,176.6,167.4,168.3z"/>
</g>
</svg>
