<?xml version="1.0" encoding="utf-8"?>
<!-- Generator: Adobe Illustrator 25.4.0, SVG Export Plug-In . SVG Version: 6.00 Build 0)  -->
<svg version="1.1" id="Layer_1" xmlns="http://www.w3.org/2000/svg" xmlns:xlink="http://www.w3.org/1999/xlink" x="0px" y="0px"
	 viewBox="0 0 300 300" style="enable-background:new 0 0 300 300;" xml:space="preserve">
<style type="text/css">
	.st0{fill:#179BAC;}
</style>
<g>
	<path class="st0" d="M230,240.3c0,0.9-1.1,1.4-3.3,1.4l-24.2,0.1c-1.2,0-1.9,0-2-0.1c-1.5-0.4-10.1-9.8-25.9-28.3
		c-15.8-18.5-23.9-27.8-24.4-27.8c-1.8,1-10.7,10.7-26.6,29.2c-15.3,18-23.7,26.9-25.2,26.9H73.5c-2.3,0-3.5-0.6-3.5-1.8v-16.4
		c0-1.4,9.4-11.6,28.2-30.5c18.8-18.9,28.2-29.1,28.2-30.6c0-1.7-9.4-12-28.1-31.1c-18.7-19.1-28.1-29.2-28.1-30.3V83.4
		c0-1.1,1.4-1.6,4.1-1.6c2.8,0,7,0.1,12.6,0.2c5.6,0.2,9.8,0.2,12.6,0.2c0.5,0,2.4,1.7,5.6,5.2c9.4,11.2,23.6,28,42.7,50.2
		c0.5,0.5,1.4,1.1,2.6,1.7c1.4-0.5,10.1-10.3,26-29.2c15.7-18.6,24.3-28,25.7-28h23.7c2.6,0,3.9,0.5,3.9,1.6v17.5
		c0,1.9-9.3,12.2-28,31c-18.7,18.8-28,28.7-28,29.7c0,1.2,9.4,11.5,28.2,30.9c18.8,19.4,28.2,29.7,28.2,31.1V240.3z"/>
</g>
</svg>
