<?xml version="1.0" encoding="utf-8"?>
<!-- Generator: Adobe Illustrator 25.4.0, SVG Export Plug-In . SVG Version: 6.00 Build 0)  -->
<svg version="1.1" id="Layer_1" xmlns="http://www.w3.org/2000/svg" xmlns:xlink="http://www.w3.org/1999/xlink" x="0px" y="0px"
	 viewBox="0 0 300 300" style="enable-background:new 0 0 300 300;" xml:space="preserve">
<style type="text/css">
	.st0{fill:#179BAC;}
	.st1{fill:#E6706A;}
</style>
<g>
	<path class="st0" d="M64.2,83.6c0,6.9,0,13.2,0,19.7c0.1,1.2,0,2.3-0.1,3.5c-0.5,3.7-3.8,6.6-7.6,6.3c-3.8-0.2-6.6-3.4-6.5-7
		c-0.1-11.3-0.1-22.7,0-34.1c0-1.8-0.7-3.6-0.1-5.5c1-3.3,3.8-5.5,7.3-5.4c9.4,0.5,18.9,0.1,28.4,0.2c3.1,0.1,6.1,0,9.1,0
		c4.2,0.1,7.4,3.1,7.5,6.9c0.1,4-3.1,7.2-7.4,7.2c-5.6,0.1-11.1,0-16.7,0h-1.3c0.2,1,1,1.4,1.6,1.7c16.3,13.9,32.5,27.8,48.8,41.6
		c2.4,2,3.9,4.3,3.2,7.5c-1.1,5.5-7.5,7.5-11.9,3.7c-6.4-5.2-12.5-10.5-18.8-15.9L64.2,83.6z"/>
	<path class="st1" d="M200.3,113.9c-6.3,5.4-12.4,10.7-18.8,15.9c-4.4,3.7-10.8,1.8-11.9-3.7c-0.7-3.2,0.8-5.4,3.2-7.5
		c16.3-13.8,32.5-27.7,48.8-41.6c0.6-0.3,1.4-0.7,1.6-1.7h-1.3c-5.6,0-11.1,0.1-16.7,0c-4.3,0-7.5-3.3-7.4-7.2
		c0.1-3.8,3.3-6.8,7.5-6.9c3,0,6,0.1,9.1,0c9.6-0.1,19,0.2,28.4-0.2c3.5-0.1,6.3,2.1,7.3,5.4c0.6,1.9-0.1,3.7-0.1,5.5
		c0.1,11.4,0.1,22.8,0,34.1c0.1,3.6-2.7,6.8-6.5,7c-3.9,0.2-7.2-2.6-7.6-6.3c-0.1-1.2-0.2-2.3-0.1-3.5c0-6.4,0-12.8,0-19.7
		L200.3,113.9z"/>
	<path class="st1" d="M99.7,186.1c6.3-5.4,12.4-10.7,18.8-15.9c4.4-3.7,10.8-1.8,11.9,3.7c0.7,3.2-0.8,5.4-3.2,7.5
		c-16.3,13.8-32.5,27.7-48.8,41.6c-0.6,0.3-1.4,0.7-1.6,1.7h1.3c5.6,0,11.1-0.1,16.7,0c4.3,0,7.5,3.3,7.4,7.2
		c-0.1,3.8-3.3,6.8-7.5,6.9c-3,0-6-0.1-9.1,0c-9.6,0.1-19-0.2-28.4,0.2c-3.5,0.1-6.3-2.1-7.3-5.4c-0.6-1.9,0.1-3.7,0.1-5.5
		c-0.1-11.4-0.1-22.8,0-34.1c-0.1-3.6,2.7-6.8,6.5-7c3.9-0.2,7.2,2.6,7.6,6.3c0.1,1.2,0.2,2.3,0.1,3.5c0,6.4,0,12.8,0,19.7
		L99.7,186.1z"/>
	<path class="st0" d="M234.3,216.4c0-6.9,0-13.2,0-19.7c-0.1-1.2,0-2.3,0.1-3.5c0.5-3.7,3.8-6.6,7.6-6.3c3.8,0.2,6.6,3.4,6.5,7
		c0.1,11.3,0.1,22.7,0,34.1c0,1.8,0.7,3.6,0.1,5.5c-1,3.3-3.8,5.5-7.3,5.4c-9.4-0.5-18.9-0.1-28.4-0.2c-3.1-0.1-6.1,0-9.1,0
		c-4.2-0.1-7.4-3.1-7.5-6.9c-0.1-4,3.1-7.2,7.4-7.2c5.6-0.1,11.1,0,16.7,0h1.3c-0.2-1-1-1.4-1.6-1.7c-16.3-13.9-32.5-27.8-48.8-41.6
		c-2.4-2-3.9-4.3-3.2-7.5c1.1-5.5,7.5-7.5,11.9-3.7c6.4,5.2,12.5,10.5,18.8,15.9L234.3,216.4z"/>
</g>
</svg>
