<?xml version="1.0" encoding="utf-8"?>
<!-- Generator: Adobe Illustrator 25.4.0, SVG Export Plug-In . SVG Version: 6.00 Build 0)  -->
<svg version="1.1" id="Layer_1" xmlns="http://www.w3.org/2000/svg" xmlns:xlink="http://www.w3.org/1999/xlink" x="0px" y="0px"
	 viewBox="0 0 300 300" style="enable-background:new 0 0 300 300;" xml:space="preserve">
<style type="text/css">
	.st0{fill:#179BAC;}
	.st1{fill:#4D4C4D;}
	.st2{fill:#E6706A;}
</style>
<g>
	<path class="st0" d="M264.5,188c-1,3.3-0.8,6.7-1.3,10c-0.9,5.6-1.7,11.3-4.1,16.6c-4,9.4-14.9,13.7-24.3,9.6
		c-0.9-0.4-1.9-0.9-2.7-1.5c-8.2-5.3-15.2-12-21.9-18.9c-4-4.2-7.9-8.5-11.7-12.9c-3.3-4-8.2-6.2-13.3-6.1c-23.3,0-46.7,0-70,0
		c-5.3-0.1-10.3,2.2-13.7,6.2c-8.8,10.2-17.8,20-28.5,28.2c-1.8,1.4-3.6,2.6-5.5,3.7c-9.7,5.7-21,2.3-26.1-7.8
		c-2.6-5.1-3.5-10.7-4.3-16.3c-3-22.2-1.5-44.1,4.8-65.7c4.5-15.3,11-29.7,21.3-42.1c7.4-8.9,16.7-15,28.4-16.6
		c9.7-1.3,19,0.6,27.9,4.3c4.3,1.8,8.4,4.1,12.3,6.8c4,2.8,8.8,4.3,13.6,4.2c2.8,0,5.5-0.1,8.3,0c5.7,0.1,11.3-1.6,15.9-4.9
		c8.7-5.9,18.2-9.7,28.7-10.7c15.1-1.4,27.4,4.2,37.4,15.2c8.4,9.3,14,20.3,18.6,31.8c5.6,14.2,9,29.2,9.9,44.4
		c0,0.4-0.2,0.9,0.4,1.1v13.9c-0.4,1.6-0.4,3.3,0,4.9L264.5,188z"/>
	<path class="st1" d="M264.5,185.8c-0.9-1.6-0.6-3.3,0-4.9V185.8z"/>
	<path class="st2" d="M84.1,125.5c2.1-0.2,5.5,1.1,7-0.5c1.3-1.4,0.4-4.8,0.4-7.3c0-2.1,0.1-4.2,0-6.3c-0.2-1,0.5-2,1.5-2.2
		c0,0,0,0,0.1,0c4.4-1.4,9.1-1.2,13.3,0.4c1.2,0.4,1.1,1.1,1.1,2.1c0,4,0,8-0.1,12.1c0,1.4,0.3,1.8,1.7,1.7c3.9-0.1,7.7,0,11.6-0.1
		c1-0.1,1.9,0.4,2.3,1.3c2.8,4.6,2.3,9.2,0,13.8c-0.5,1-1.2,0.9-2,0.9c-3.9,0-7.9,0.1-11.8,0c-1.8-0.1-2.4,0.3-2.4,2.3
		c0.2,3.7,0,7.4,0.1,11.2c0.2,1.2-0.6,2.3-1.8,2.7c-4.1,1.7-8.2,2.1-12.3,0.1c-1.3-0.5-2.1-1.8-1.9-3.1c0.1-3.7,0-7.4,0.1-11.2
		c0.1-1.6-0.5-2-2-1.9c-3.8,0.1-7.6,0-11.4,0.1c-1.1,0.1-2.1-0.5-2.4-1.5c-2-4.2-2-9.1,0-13.4c0.3-0.8,1.1-1.3,1.9-1.2
		C79.3,125.5,81.4,125.5,84.1,125.5z"/>
	<path class="st2" d="M182.1,112.1c0-6.8,5.6-12.3,12.4-12.3c6.8,0,12.3,5.6,12.3,12.4c0,6.8-5.6,12.3-12.4,12.3c0,0,0,0-0.1,0
		c-6.8,0-12.3-5.5-12.2-12.3C182.1,112.1,182.1,112.1,182.1,112.1z"/>
	<path class="st2" d="M237.7,130.4c0,6.8-5.5,12.4-12.4,12.4c-6.8,0-12.4-5.5-12.4-12.4c0-6.8,5.5-12.4,12.4-12.4c0,0,0.1,0,0.1,0
		C232.2,118.1,237.7,123.6,237.7,130.4z"/>
	<path class="st2" d="M206.8,146.3c0,6.8-5.6,12.3-12.4,12.3c-6.8,0-12.3-5.6-12.3-12.4c0-6.8,5.6-12.3,12.4-12.3c0,0,0,0,0.1,0
		c6.8,0,12.3,5.5,12.2,12.3C206.8,146.2,206.8,146.2,206.8,146.3z"/>
</g>
</svg>
