<?xml version="1.0" encoding="utf-8"?>
<!-- Generator: Adobe Illustrator 25.4.0, SVG Export Plug-In . SVG Version: 6.00 Build 0)  -->
<svg version="1.1" id="Layer_1" xmlns="http://www.w3.org/2000/svg" xmlns:xlink="http://www.w3.org/1999/xlink" x="0px" y="0px"
	 viewBox="0 0 300 300" style="enable-background:new 0 0 300 300;" xml:space="preserve">
<style type="text/css">
	.st0{fill:#179BAC;}
	.st1{fill:#E6E6E6;}
	.st2{fill:#E6706A;}
</style>
<g>
	<path class="st0" d="M150,50.8c54.6,0,99.2,44.5,99.4,99.2c0.1,54.6-44.7,99.4-99.4,99.3c-54.7-0.1-99.3-44.7-99.2-99.3
		C50.7,95.4,95.3,50.8,150,50.8z"/>
	<path class="st1" d="M150,232.7c-45.5,0.1-82.8-37.2-82.8-82.7c0-45.5,37.2-82.7,82.7-82.8c45.5,0,82.8,37.2,82.8,82.7
		C232.8,195.4,195.6,232.7,150,232.7z"/>
	<path class="st2" d="M170.7,150c0,13.5,0,27,0,40.6c0,2.6-0.7,4.8-2.6,6.7c-3.1,3-7.6,3.2-10.9,0.5c-0.4-0.3-0.7-0.7-1.1-1.1
		c-13.5-13.5-26.9-26.9-40.4-40.4c-0.5-0.5-1-1-1.4-1.6c-2-2.8-2.1-6.3-0.1-9.2c0.5-0.7,1.1-1.3,1.7-2c13.3-13.3,26.6-26.6,40-39.9
		c0.6-0.6,1.3-1.2,1.9-1.7c4.1-3.3,12-0.6,12.7,5c0.1,1.1,0.2,2.2,0.2,3.3C170.7,123.4,170.7,136.7,170.7,150z"/>
</g>
</svg>
