<?xml version="1.0" encoding="utf-8"?>
<!-- Generator: Adobe Illustrator 25.4.0, SVG Export Plug-In . SVG Version: 6.00 Build 0)  -->
<svg version="1.1" id="Layer_1" xmlns="http://www.w3.org/2000/svg" xmlns:xlink="http://www.w3.org/1999/xlink" x="0px" y="0px"
	 viewBox="0 0 300 300" style="enable-background:new 0 0 300 300;" xml:space="preserve">
<style type="text/css">
	.st0{fill:#179BAC;}
	.st1{fill:#E6E6E6;}
	.st2{fill:#E6706A;}
</style>
<g>
	<path class="st0" d="M150,50.8c54.6,0,99.3,44.6,99.3,99.2c0.1,54.7-44.8,99.4-99.4,99.3c-54.7-0.1-99.3-44.7-99.2-99.3
		C50.8,95.3,95.4,50.8,150,50.8z"/>
	<path class="st1" d="M232.8,150c0.1,45.4-37.2,82.7-82.7,82.8c-45.5,0.1-82.8-37.2-82.8-82.7c0-45.4,37.2-82.7,82.7-82.8
		C195.4,67.2,232.7,104.5,232.8,150z"/>
	<path class="st2" d="M129.3,150c0-13.5,0-27,0-40.6c0-2.6,0.7-4.8,2.6-6.7c3.2-3,7.8-3.2,11.1-0.2c1.1,1,2.1,2,3.1,3.1
		c12.7,12.6,25.3,25.3,38,37.9c0.4,0.4,0.8,0.8,1.2,1.3c2.6,3.1,2.7,7.2,0.1,10.4c-0.2,0.3-0.5,0.5-0.7,0.8
		c-13.7,13.7-27.5,27.4-41.2,41.2c-1,1-2.2,1.9-3.7,2.3c-4.6,1.3-9.3-1.6-10.3-6.2c-0.2-1.1-0.2-2.2-0.2-3.3
		C129.3,176.6,129.3,163.3,129.3,150z"/>
</g>
</svg>
