<?xml version="1.0" encoding="utf-8"?>
<!-- Generator: Adobe Illustrator 25.4.0, SVG Export Plug-In . SVG Version: 6.00 Build 0)  -->
<svg version="1.1" id="Layer_1" xmlns="http://www.w3.org/2000/svg" xmlns:xlink="http://www.w3.org/1999/xlink" x="0px" y="0px"
	 viewBox="0 0 300 300" style="enable-background:new 0 0 300 300;" xml:space="preserve">
<style type="text/css">
	.st0{fill:#179BAC;}
	.st1{fill:#E6E6E6;}
	.st2{fill:#E6706A;}
</style>
<g>
	<path class="st0" d="M249.4,153.8c-0.1,54.7-44.9,99.4-99.5,99.3c-54.7-0.1-99.4-45-99.2-99.5c0.2-54.7,44.8-99.2,99.4-99.1
		C204.8,54.4,249.5,99.1,249.4,153.8z"/>
	<path class="st1" d="M149.9,236.5c-45.5-0.1-82.8-37.3-82.6-83.1c0.1-45.5,37.6-82.7,83-82.5c45.6,0.1,82.8,37.4,82.6,83.1
		C232.7,199.5,195.3,236.6,149.9,236.5z"/>
	<path class="st2" d="M149.9,174.4c-13.5,0-27,0-40.6,0c-2.6,0-4.8-0.8-6.6-2.7c-2.9-3.1-3.1-7.6-0.3-10.9c0.4-0.4,0.8-0.8,1.2-1.3
		c13.4-13.4,26.7-26.7,40.1-40.1c1.6-1.6,3.5-2.9,5.8-3c2.1-0.1,4,0.5,5.7,1.9c0.5,0.4,1,0.9,1.4,1.3c13.3,13.3,26.6,26.6,39.9,39.9
		c0.5,0.5,0.9,0.9,1.4,1.4c3.9,4.2,1.2,12.6-4.8,13.2c-1,0.1-2,0.2-3,0.2C176.6,174.4,163.3,174.4,149.9,174.4z"/>
</g>
</svg>
